<svg width="100%" height="100%" viewBox="0 0 4800 6400" version="1.1" xmlns="http://www.w3.org/2000/svg" xmlns:xlink="http://www.w3.org/1999/xlink" xml:space="preserve" xmlns:serif="http://www.serif.com/" style="fill-rule:evenodd;clip-rule:evenodd;stroke-linejoin:round;stroke-miterlimit:2;">
    <rect id="t-front" x="0" y="-0" width="4800" height="6400" style="fill:none;"/>
    <path id="onigiri" d="M3805.98,1938.56C3803.9,1938.04 3800.11,1937.19 3797.01,1936.55C3794.07,1935.95 3788.89,1935.86 3780.31,1936.25C3774.7,1936.51 3772.78,1936.42 3770.58,1935.79C3769.08,1935.36 3766.12,1934.7 3764.02,1934.32C3761.92,1933.95 3759.56,1933.32 3758.78,1932.93C3758.01,1932.54 3756.8,1932.08 3756.1,1931.92C3755.41,1931.75 3753.83,1930.84 3752.61,1929.9C3751.39,1928.95 3749.21,1927.84 3747.77,1927.41C3746.33,1926.99 3744.53,1926.31 3743.78,1925.9C3741.94,1924.89 3737.14,1923.61 3735.22,1923.61C3733.56,1923.61 3729.44,1921.72 3726.96,1919.83C3726.14,1919.2 3724.38,1918.23 3723.06,1917.66C3720.31,1916.48 3716.91,1913.71 3710.62,1907.53C3708.18,1905.13 3706.01,1903.16 3705.8,1903.16C3705.45,1903.16 3704,1901.11 3699.79,1894.69C3698.17,1892.23 3696.18,1889.67 3693.01,1885.96C3691.6,1884.32 3690.05,1882.19 3689.57,1881.23C3689.09,1880.27 3688.28,1879.02 3687.77,1878.46C3686.71,1877.3 3683.83,1871.57 3683.83,1870.62C3683.83,1870.28 3683.26,1868.93 3682.57,1867.62C3680.91,1864.51 3680.52,1861.06 3680.92,1853.1C3681.1,1849.51 3681.14,1844.33 3681,1841.59C3680.29,1827.23 3680.61,1822.72 3682.64,1818.8C3683.03,1818.04 3683.58,1816.24 3683.85,1814.81C3684.44,1811.7 3687.34,1805.79 3689.29,1803.7C3691.82,1800.99 3696.28,1790.56 3696.31,1787.28C3696.32,1785.57 3697.77,1782.09 3699.25,1780.2C3699.79,1779.51 3700.59,1777.74 3701.01,1776.27C3701.44,1774.79 3702.02,1773.45 3702.3,1773.28C3702.57,1773.11 3703.5,1771.58 3704.35,1769.89C3705.2,1768.19 3706.67,1765.74 3707.61,1764.44C3708.56,1763.14 3709.54,1761.35 3709.79,1760.45C3710.04,1759.56 3710.76,1758.07 3711.37,1757.13C3715.3,1751.22 3717.96,1745.65 3718.71,1741.77C3719.02,1740.18 3719.68,1737.88 3720.19,1736.64C3720.69,1735.41 3721.37,1733.28 3721.69,1731.91C3722.01,1730.54 3722.69,1728.52 3723.2,1727.42C3723.71,1726.32 3724.28,1724.64 3724.48,1723.68C3724.91,1721.48 3726.32,1719.09 3728.92,1716.13C3732.6,1711.94 3738.17,1702.38 3738.18,1700.25C3738.18,1699.84 3738.87,1698.04 3739.73,1696.26C3740.58,1694.48 3741.72,1692.09 3742.25,1690.97C3742.79,1689.84 3744.24,1687.82 3745.47,1686.48C3746.7,1685.14 3748.06,1683.37 3748.49,1682.55C3749.7,1680.24 3755.14,1674.95 3757.51,1673.78C3758.68,1673.2 3760.25,1671.91 3760.99,1670.91C3761.72,1669.9 3762.95,1668.53 3763.71,1667.84C3765.47,1666.24 3767.32,1663.65 3768.52,1661.08C3769.05,1659.96 3770.54,1658.05 3771.84,1656.84C3773.15,1655.62 3775.47,1653.35 3777.01,1651.78C3778.55,1650.21 3780.63,1648.31 3781.64,1647.54C3787.72,1642.92 3789.57,1641.45 3792.09,1639.19C3793.63,1637.81 3796.07,1635.89 3797.51,1634.93C3800.82,1632.73 3805.11,1628.95 3807.65,1626C3810.96,1622.16 3817.22,1616.31 3819.43,1614.99C3820.58,1614.31 3822.47,1612.95 3823.63,1611.98C3826.28,1609.77 3831.1,1608.38 3840.88,1607.02C3844.35,1606.54 3848.49,1605.7 3853.66,1604.45C3859.3,1603.08 3868.67,1602.96 3871.79,1604.22C3873.03,1604.71 3875.49,1605.45 3877.28,1605.85C3879.06,1606.25 3881.19,1606.92 3882.01,1607.36C3882.84,1607.79 3884.41,1608.59 3885.5,1609.13C3886.6,1609.68 3888.74,1611.3 3890.25,1612.74C3891.77,1614.18 3893.75,1615.73 3894.65,1616.2C3895.56,1616.67 3897.31,1617.82 3898.54,1618.77C3899.78,1619.71 3901.01,1620.48 3901.29,1620.48C3901.57,1620.48 3902.46,1620.94 3903.26,1621.52C3904.07,1622.09 3905.48,1622.77 3906.4,1623.02C3909.39,1623.85 3923.37,1638.46 3925.82,1643.32C3926.32,1644.33 3927.66,1646.11 3928.79,1647.28C3929.91,1648.44 3931.29,1650.28 3931.85,1651.35C3932.41,1652.43 3933.35,1654.17 3933.95,1655.22C3935.11,1657.27 3939.57,1661.93 3944.57,1666.35C3953.15,1673.91 3958.02,1679.21 3959.79,1682.9C3962.77,1689.12 3964.15,1691.47 3965.36,1692.42C3965.99,1692.93 3966.52,1693.59 3966.52,1693.89C3966.52,1694.19 3969.06,1696.93 3972.17,1699.97C3976.81,1704.5 3978.12,1706.13 3979.47,1708.98C3980.38,1710.9 3981.79,1713.4 3982.61,1714.56C3984.6,1717.34 3986.47,1721.85 3986.96,1724.98C3987.18,1726.38 3988.05,1728.85 3988.9,1730.47C3989.75,1732.08 3990.45,1733.64 3990.45,1733.93C3990.45,1734.61 3993.17,1738.41 3995.24,1740.63C3996.8,1742.29 3998.4,1745.41 3999.09,1748.11C3999.26,1748.8 3999.91,1750.14 4000.52,1751.1C4001.65,1752.86 4002.85,1755.92 4004.91,1762.32C4005.53,1764.24 4006.79,1767.5 4007.72,1769.57C4008.64,1771.64 4009.4,1773.73 4009.4,1774.21C4009.4,1775.56 4010.83,1780.05 4011.91,1782.11C4012.45,1783.12 4012.89,1784.21 4012.89,1784.52C4012.89,1784.84 4014.01,1786.8 4015.38,1788.89C4016.75,1790.98 4017.87,1793.06 4017.87,1793.51C4017.87,1793.97 4018.29,1794.88 4018.81,1795.53C4020.21,1797.32 4021.62,1799.97 4022.36,1802.2C4022.72,1803.3 4023.52,1804.98 4024.14,1805.94C4025.29,1807.75 4026.57,1812.66 4026.08,1813.45C4025.93,1813.7 4026.06,1815.31 4026.38,1817.03C4026.69,1818.75 4026.94,1820.71 4026.93,1821.4C4026.91,1822.72 4027.53,1825.08 4029.32,1830.37C4029.92,1832.15 4030.63,1834.51 4030.91,1835.61C4031.18,1836.7 4031.76,1838.61 4032.21,1839.85C4033,1842.03 4033.12,1844.65 4032.85,1853.81C4032.73,1857.91 4031.3,1864.04 4029.83,1866.77C4028.84,1868.62 4026.64,1873.06 4024.29,1877.99C4023.5,1879.63 4022.86,1881.26 4022.86,1881.6C4022.86,1881.95 4022.41,1883.07 4021.86,1884.09C4021.31,1885.11 4020.86,1886.4 4020.86,1886.95C4020.83,1890.88 4006.76,1906.03 4000.44,1908.95C3999.47,1909.4 3997.6,1910.66 3996.28,1911.75C3994.96,1912.85 3992.83,1914.14 3991.54,1914.62C3990.26,1915.11 3988.53,1915.87 3987.71,1916.31C3986.89,1916.75 3985.88,1917.12 3985.47,1917.13C3985.05,1917.14 3983.73,1917.81 3982.52,1918.63C3981.32,1919.45 3980.11,1920.12 3979.84,1920.12C3979.57,1920.12 3978.21,1920.93 3976.82,1921.93C3975.43,1922.93 3973.16,1924.29 3971.78,1924.94C3970.39,1925.6 3968.36,1926.68 3967.27,1927.36C3966.17,1928.03 3964.15,1928.93 3962.78,1929.37C3961.41,1929.81 3959.22,1930.72 3957.92,1931.4C3955.77,1932.53 3954.86,1932.66 3947.95,1932.84C3939.22,1933.07 3935.15,1933.67 3930.74,1935.37C3929.02,1936.03 3927.04,1936.57 3926.35,1936.57C3925.66,1936.57 3924.37,1936.94 3923.49,1937.4C3920.47,1938.99 3902.98,1939.05 3899.02,1937.49C3896.18,1936.37 3884.96,1936.4 3882.06,1937.53C3880.33,1938.21 3862.89,1937.93 3856.34,1937.12C3843.69,1935.56 3834.27,1935.27 3830.24,1936.32C3828.66,1936.73 3826.54,1937.07 3825.53,1937.07C3824.51,1937.07 3822.89,1937.29 3821.93,1937.56C3820.96,1937.83 3818.5,1938.15 3816.44,1938.27C3814.39,1938.4 3811.59,1938.61 3810.22,1938.75C3808.85,1938.88 3806.94,1938.8 3805.98,1938.56L3805.98,1938.56ZM3787.12,1911.76C3787,1910.74 3786.6,1909.45 3786.22,1908.91C3785.85,1908.37 3785.53,1907.36 3785.52,1906.67C3785.51,1905.97 3785.19,1904.98 3784.8,1904.47C3784.41,1903.95 3783.93,1902.49 3783.75,1901.23C3783.57,1899.96 3783.2,1898.65 3782.93,1898.31C3782.45,1897.7 3782.5,1896.87 3783.49,1889.47C3784.17,1884.39 3781.12,1878.57 3781.48,1872.03C3781.78,1866.62 3782.6,1859.95 3782.52,1853.41C3782.48,1850.78 3782.11,1837.4 3782.13,1828.6C3782.14,1823.86 3782.06,1820.55 3782.6,1815.91C3783.02,1812.29 3784.28,1807.36 3783.26,1803.68C3781.47,1797.21 3781.72,1794.04 3781.84,1792.73C3781.97,1791.32 3781.81,1784.61 3782.16,1784.25C3782.51,1783.89 3782.2,1781.9 3783.11,1780.05C3784.01,1778.2 3785.41,1778.44 3787.13,1778.55C3787.39,1778.57 3789.58,1778.5 3790.32,1778.48C3798.3,1778.27 3802.72,1777.29 3806.13,1778.75C3808.53,1779.77 3817.85,1778.42 3818.51,1778.42C3822.78,1778.4 3831.92,1779.06 3834.26,1779.54C3835.8,1779.86 3837.82,1780 3838.75,1779.85C3839.69,1779.69 3841.05,1779.8 3841.79,1780.09C3844.13,1781 3849.85,1780.72 3852.35,1779.58C3853.58,1779.01 3855.16,1778.54 3855.86,1778.53C3856.56,1778.53 3857.36,1778.3 3857.64,1778.02C3858.16,1777.49 3863.67,1776.11 3866.95,1775.67C3867.98,1775.54 3869.49,1775.69 3870.28,1776.02C3872.48,1776.93 3880.62,1776.82 3882.94,1775.84C3886.96,1774.16 3902.22,1772.84 3903,1774.11C3903.14,1774.35 3903.87,1774.53 3904.61,1774.53C3905.38,1774.53 3910.55,1774.85 3910.88,1775.38C3911.3,1776.04 3912.27,1776.37 3914.37,1776.56C3917.05,1776.8 3918.41,1776.67 3923.66,1775.67C3928.1,1774.82 3928.59,1779.25 3929.33,1784.75C3929.78,1788.15 3929.79,1787.82 3929.18,1791.82C3928.62,1795.53 3929.03,1799.56 3930.07,1800.6C3930.37,1800.91 3930.62,1801.63 3930.62,1802.2C3930.62,1802.77 3931.07,1804.12 3931.62,1805.19C3932.17,1806.27 3932.62,1807.76 3932.62,1808.51C3932.62,1809.26 3933.75,1814.99 3933.08,1816.76C3932.19,1819.08 3932.34,1827.4 3933.31,1829.26C3933.76,1830.14 3934.2,1831.48 3934.29,1832.25C3934.38,1833.01 3934.93,1849.93 3933.64,1852.02C3932.05,1854.62 3931.62,1858.43 3932.5,1862.22C3932.92,1864.04 3933.24,1866.19 3933.22,1867.02C3933.07,1871.39 3932.62,1876.36 3932.12,1879.23C3931.81,1881.02 3931.55,1882.92 3931.56,1883.47C3931.56,1884.02 3931.31,1886.86 3931.01,1889.79C3930.49,1894.75 3930.53,1895.33 3931.54,1898.4C3932.13,1900.21 3932.62,1902.2 3932.62,1902.84C3932.62,1903.47 3932.93,1904.98 3933.32,1906.19C3933.71,1907.4 3934.16,1909 3934.32,1909.74C3934.69,1911.42 3934.38,1911.43 3950.32,1909.2C3951.69,1909.01 3953.84,1908.25 3955.1,1907.51C3956.35,1906.76 3957.97,1906.15 3958.7,1906.15C3960.18,1906.15 3965.22,1904.06 3965.73,1903.23C3965.91,1902.93 3966.96,1902.45 3968.06,1902.15C3971.92,1901.11 3978.3,1897.7 3980.18,1895.68C3981.19,1894.59 3982.21,1893.69 3982.45,1893.69C3982.69,1893.69 3984.73,1892.23 3986.98,1890.43C3989.24,1888.64 3992.26,1886.62 3993.7,1885.94C3999.57,1883.16 4001.92,1879.77 4004.2,1870.79C4004.65,1869.03 4005.21,1867.23 4005.46,1866.8C4005.71,1866.37 4006.22,1864.56 4006.61,1862.78C4006.99,1861 4007.93,1857.89 4008.68,1855.88C4009.99,1852.41 4010.03,1852.06 4009.45,1849.15C4009.12,1847.46 4008.55,1843.27 4008.2,1839.85C4007.71,1835.17 4007.28,1833.18 4006.48,1831.87C4005.89,1830.91 4005.41,1829.45 4005.41,1828.62C4005.41,1827.8 4005.18,1826.34 4004.9,1825.38C4004.63,1824.43 4004.18,1822.41 4003.91,1820.9C4003.1,1816.35 4002.02,1812.84 4000.47,1809.68C3999.66,1808.04 3998.62,1805.35 3998.16,1803.7C3997.7,1802.05 3996.68,1799.72 3995.88,1798.5C3995.09,1797.29 3994.44,1795.91 3994.44,1795.43C3994.44,1794.95 3993.97,1793.48 3993.4,1792.15C3992.84,1790.82 3991.95,1788.56 3991.44,1787.11C3990.93,1785.66 3989.72,1783.39 3988.74,1782.06C3987.76,1780.73 3986.96,1779.43 3986.96,1779.18C3986.96,1778.92 3985.84,1776.15 3984.47,1773.01C3983.1,1769.87 3981.98,1766.56 3981.98,1765.64C3981.97,1760.33 3979.9,1755.24 3975.3,1749.17C3969.81,1741.93 3965.59,1734.85 3964.26,1730.66C3963,1726.69 3961.91,1724.71 3959.12,1721.38C3956.87,1718.68 3955,1715.95 3952.68,1711.96C3952.2,1711.14 3950.56,1709.23 3949.04,1707.73C3947.51,1706.22 3946,1704.42 3945.68,1703.74C3945.1,1702.49 3942.7,1698.96 3938.23,1692.72C3936.93,1690.91 3935.14,1688.89 3934.24,1688.23C3933.35,1687.57 3932.02,1686.04 3931.29,1684.82C3930.56,1683.59 3928.6,1681.2 3926.93,1679.5C3925.26,1677.8 3922.82,1674.99 3921.51,1673.25C3920.19,1671.51 3918.44,1669.19 3917.61,1668.09C3916.78,1666.99 3915.16,1665.35 3914.01,1664.43C3912.86,1663.52 3911.72,1662.4 3911.47,1661.95C3911.21,1661.51 3909.25,1659.02 3907.1,1656.43C3904.96,1653.84 3903.2,1651.36 3903.2,1650.92C3903.2,1649.9 3900.12,1645.16 3898.05,1643.01C3896.68,1641.58 3893.76,1639.95 3886.75,1636.71C3885.79,1636.26 3884.08,1635.37 3882.95,1634.73C3881.82,1634.08 3880.37,1633.39 3879.71,1633.2C3879.06,1633 3877.04,1631.86 3875.22,1630.66C3870.65,1627.64 3870.59,1627.62 3860.95,1627.21C3853.46,1626.89 3852.19,1626.95 3851.12,1627.65C3850.44,1628.09 3849.3,1628.45 3848.58,1628.45C3844.55,1628.45 3834.97,1631.87 3832.41,1634.22C3831.45,1635.1 3829.76,1636.23 3828.67,1636.73C3827.57,1637.23 3825.55,1638.78 3824.18,1640.17C3822.81,1641.56 3821.12,1643.06 3820.44,1643.49C3817.66,1645.27 3811.15,1651.05 3810.22,1652.57C3808.45,1655.46 3797.97,1664.85 3796.52,1664.85C3793.03,1664.85 3785.94,1671.93 3781.28,1680.06C3780.5,1681.43 3778.82,1683.78 3777.55,1685.29C3776.29,1686.8 3774.89,1688.61 3774.45,1689.32C3774.02,1690.03 3772.07,1691.94 3770.13,1693.56C3767.19,1696.01 3766.22,1697.24 3764.34,1700.84C3763.1,1703.23 3761.53,1705.84 3760.85,1706.65C3760.17,1707.46 3759.61,1708.33 3759.61,1708.58C3759.61,1708.84 3758.83,1710.15 3757.86,1711.5C3756.9,1712.85 3755.87,1714.86 3755.59,1715.95C3755.3,1717.05 3754.33,1719.07 3753.43,1720.44C3751.81,1722.9 3749.62,1726.47 3748.13,1729.08C3747.71,1729.81 3746.77,1731.42 3746.04,1732.65C3745.31,1733.89 3744.46,1736.02 3744.16,1737.38C3743.85,1738.75 3743.31,1740.21 3742.94,1740.62C3741.73,1742.01 3739.8,1746.34 3739.44,1748.48C3739.24,1749.64 3738.87,1750.73 3738.59,1750.9C3737.77,1751.41 3732.37,1763.19 3731.99,1765.31C3731.46,1768.25 3725.37,1780.39 3723.46,1782.3C3718.86,1786.9 3717.18,1790.14 3715.17,1798.34C3714.12,1802.59 3713.06,1806.33 3712.81,1806.63C3712.56,1806.94 3711.88,1808.74 3711.3,1810.64C3710.72,1812.53 3709.11,1816.05 3707.73,1818.46C3705.42,1822.5 3705.19,1823.2 3704.78,1827.48C3704.54,1830.03 3704.06,1833.69 3703.72,1835.61C3703.38,1837.53 3703.13,1839.88 3703.17,1840.84C3703.81,1857.47 3704.24,1860.96 3706.03,1863.79C3706.71,1864.87 3707.27,1866.15 3707.27,1866.63C3707.28,1867.98 3709.63,1872.73 3710.44,1873.04C3710.84,1873.2 3711.45,1874.03 3711.8,1874.91C3713.2,1878.37 3717.42,1883.88 3719.83,1885.37C3721.14,1886.19 3722.22,1887.02 3722.22,1887.21C3722.22,1887.41 3724.24,1889.23 3726.71,1891.25C3729.18,1893.28 3731.2,1895.12 3731.2,1895.34C3731.2,1896.03 3736.25,1901.13 3738,1902.21C3738.91,1902.78 3742.64,1903.88 3746.27,1904.67C3756.96,1906.98 3762.12,1908.45 3766.1,1910.33C3769.34,1911.86 3770.5,1912.14 3774.82,1912.4C3777.56,1912.56 3781.15,1912.88 3782.8,1913.1C3787.66,1913.76 3787.36,1913.85 3787.12,1911.76Z" style="fill:{{color3}}; fill-rule:nonzero;"/>
    <path id="text01" d="M3673.63,2031.35C3674.58,2032.88 3676.09,2033.65 3678.18,2033.65C3680.26,2033.65 3681.77,2032.87 3682.72,2031.31C3683.66,2029.75 3684.13,2027.05 3684.13,2023.23C3684.13,2019.41 3683.66,2016.72 3682.72,2015.15C3681.77,2013.59 3680.26,2012.81 3678.18,2012.81C3676.09,2012.81 3674.58,2013.59 3673.63,2015.15C3672.69,2016.72 3672.22,2019.41 3672.22,2023.23C3672.22,2027.05 3672.69,2029.76 3673.63,2031.35ZM3663.36,2008.49C3666.89,2004.92 3671.82,2003.13 3678.18,2003.13C3684.53,2003.13 3689.46,2004.91 3692.99,2008.46C3696.51,2012 3698.27,2016.93 3698.27,2023.23C3698.27,2029.53 3696.51,2034.46 3692.99,2038.01C3689.46,2041.56 3684.53,2043.33 3678.18,2043.33C3671.82,2043.33 3666.89,2041.56 3663.36,2038.01C3659.84,2034.46 3658.08,2029.53 3658.08,2023.23C3658.08,2016.93 3659.84,2012.02 3663.36,2008.49Z" style="fill:{{color3}}; fill-rule:nonzero;"/>
    <path id="text02" d="M3717.18,2003.88C3718.32,2003.88 3719.31,2004.3 3720.16,2005.14C3721,2005.99 3721.42,2006.98 3721.42,2008.12L3721.42,2038.34C3721.42,2039.48 3721,2040.48 3720.16,2041.32C3719.31,2042.16 3718.32,2042.59 3717.18,2042.59L3710.78,2042.59C3709.64,2042.59 3708.64,2042.16 3707.8,2041.32C3706.96,2040.48 3706.53,2039.48 3706.53,2038.34L3706.53,2008.12C3706.53,2006.98 3706.96,2005.99 3707.8,2005.14C3708.64,2004.3 3709.64,2003.88 3710.78,2003.88L3717.18,2003.88ZM3717.18,1986.76C3718.32,1986.76 3719.31,1987.18 3720.16,1988.02C3721,1988.87 3721.42,1989.86 3721.42,1991L3721.42,1992.94C3721.42,1994.08 3721,1995.07 3720.16,1995.91C3719.31,1996.76 3718.32,1997.18 3717.18,1997.18L3710.78,1997.18C3709.64,1997.18 3708.64,1996.76 3707.8,1995.91C3706.96,1995.07 3706.53,1994.08 3706.53,1992.94L3706.53,1991C3706.53,1989.86 3706.96,1988.87 3707.8,1988.02C3708.64,1987.18 3709.64,1986.76 3710.78,1986.76L3717.18,1986.76Z" style="fill:{{color3}}; fill-rule:nonzero;"/>
    <path id="text03" d="M3749.04,2017.65C3754.69,2018.39 3758.71,2019.82 3761.1,2021.93C3763.48,2024.04 3764.67,2027.08 3764.67,2031.05C3764.67,2034.97 3763.25,2037.99 3760.43,2040.13C3757.6,2042.26 3753.43,2043.33 3747.92,2043.33C3743.85,2043.33 3739.76,2042.93 3735.64,2042.14C3734.45,2041.89 3733.47,2041.27 3732.7,2040.28C3731.93,2039.29 3731.55,2038.14 3731.55,2036.85L3731.55,2034.92C3731.55,2033.88 3731.97,2033.06 3732.81,2032.46C3733.65,2031.87 3734.57,2031.69 3735.56,2031.94C3739.29,2032.83 3742.78,2033.28 3746.06,2033.28C3748.79,2033.28 3750.15,2032.49 3750.15,2030.9C3750.15,2030.15 3749.93,2029.61 3749.48,2029.26C3749.04,2028.91 3748.14,2028.64 3746.8,2028.44C3741.3,2027.55 3737.31,2026.01 3734.86,2023.83C3732.4,2021.64 3731.17,2018.72 3731.17,2015.04C3731.17,2011.27 3732.62,2008.35 3735.53,2006.26C3738.43,2004.18 3742.81,2003.13 3748.66,2003.13C3752.53,2003.13 3756.11,2003.38 3759.38,2003.88C3760.62,2004.08 3761.63,2004.65 3762.4,2005.59C3763.17,2006.53 3763.55,2007.62 3763.55,2008.87L3763.55,2010.43C3763.55,2011.47 3763.12,2012.33 3762.25,2013C3761.38,2013.67 3760.43,2013.9 3759.38,2013.7C3756.36,2013.11 3753.26,2012.81 3750.08,2012.81C3748.44,2012.81 3747.3,2012.98 3746.66,2013.33C3746.01,2013.68 3745.69,2014.25 3745.69,2015.04C3745.69,2016.53 3746.8,2017.4 3749.04,2017.65Z" style="fill:{{color3}}; fill-rule:nonzero;"/>
    <path id="text04" d="M3798.61,2003.13C3803.22,2003.13 3806.49,2004.46 3808.4,2007.12C3810.31,2009.77 3811.26,2014.65 3811.26,2021.74L3811.26,2038.34C3811.26,2039.48 3810.84,2040.48 3810,2041.32C3809.16,2042.16 3808.16,2042.59 3807.02,2042.59L3801.74,2042.59C3800.6,2042.59 3799.6,2042.16 3798.76,2041.32C3797.92,2040.48 3797.49,2039.48 3797.49,2038.34L3797.49,2023.23C3797.49,2019.56 3797.18,2017.15 3796.56,2016.01C3795.94,2014.87 3794.76,2014.3 3793.03,2014.3C3791.64,2014.3 3790.36,2014.85 3789.19,2015.94C3788.03,2017.03 3787.45,2018.22 3787.45,2019.51L3787.45,2038.34C3787.45,2039.48 3787.02,2040.48 3786.18,2041.32C3785.34,2042.16 3784.34,2042.59 3783.2,2042.59L3777.55,2042.59C3776.4,2042.59 3775.41,2042.16 3774.57,2041.32C3773.72,2040.48 3773.3,2039.48 3773.3,2038.34L3773.3,1991C3773.3,1989.86 3773.72,1988.87 3774.57,1988.02C3775.41,1987.18 3776.4,1986.76 3777.55,1986.76L3783.2,1986.76C3784.34,1986.76 3785.34,1987.18 3786.18,1988.02C3787.02,1988.87 3787.45,1989.86 3787.45,1991L3787.45,2007.53C3787.45,2007.58 3787.47,2007.6 3787.52,2007.6C3787.57,2007.6 3787.62,2007.58 3787.67,2007.53C3791.19,2004.6 3794.84,2003.13 3798.61,2003.13Z" style="fill:{{color3}}; fill-rule:nonzero;"/>
    <path id="text05" d="M3832.4,2003.88C3833.55,2003.88 3834.54,2004.3 3835.38,2005.14C3836.22,2005.99 3836.65,2006.98 3836.65,2008.12L3836.65,2038.34C3836.65,2039.48 3836.22,2040.48 3835.38,2041.32C3834.54,2042.16 3833.55,2042.59 3832.4,2042.59L3826,2042.59C3824.86,2042.59 3823.87,2042.16 3823.03,2041.32C3822.18,2040.48 3821.76,2039.48 3821.76,2038.34L3821.76,2008.12C3821.76,2006.98 3822.18,2005.99 3823.03,2005.14C3823.87,2004.3 3824.86,2003.88 3826,2003.88L3832.4,2003.88ZM3832.4,1986.76C3833.55,1986.76 3834.54,1987.18 3835.38,1988.02C3836.22,1988.87 3836.65,1989.86 3836.65,1991L3836.65,1992.94C3836.65,1994.08 3836.22,1995.07 3835.38,1995.91C3834.54,1996.76 3833.55,1997.18 3832.4,1997.18L3826,1997.18C3824.86,1997.18 3823.87,1996.76 3823.03,1995.91C3822.18,1995.07 3821.76,1994.08 3821.76,1992.94L3821.76,1991C3821.76,1989.86 3822.18,1988.87 3823.03,1988.02C3823.87,1987.18 3824.86,1986.76 3826,1986.76L3832.4,1986.76Z" style="fill:{{color3}}; fill-rule:nonzero;"/>
    <path id="text06" d="M3858.16,2003.88C3859.3,2003.88 3860.29,2004.3 3861.14,2005.14C3861.98,2005.99 3862.4,2006.98 3862.4,2008.12L3862.4,2038.34C3862.4,2039.48 3861.98,2040.48 3861.14,2041.32C3860.29,2042.16 3859.3,2042.59 3858.16,2042.59L3851.76,2042.59C3850.62,2042.59 3849.62,2042.16 3848.78,2041.32C3847.94,2040.48 3847.51,2039.48 3847.51,2038.34L3847.51,2008.12C3847.51,2006.98 3847.94,2005.99 3848.78,2005.14C3849.62,2004.3 3850.62,2003.88 3851.76,2003.88L3858.16,2003.88ZM3858.16,1986.76C3859.3,1986.76 3860.29,1987.18 3861.14,1988.02C3861.98,1988.87 3862.4,1989.86 3862.4,1991L3862.4,1992.94C3862.4,1994.08 3861.98,1995.07 3861.14,1995.91C3860.29,1996.76 3859.3,1997.18 3858.16,1997.18L3851.76,1997.18C3850.62,1997.18 3849.62,1996.76 3848.78,1995.91C3847.94,1995.07 3847.51,1994.08 3847.51,1992.94L3847.51,1991C3847.51,1989.86 3847.94,1988.87 3848.78,1988.02C3849.62,1987.18 3850.62,1986.76 3851.76,1986.76L3858.16,1986.76Z" style="fill:{{color3}}; fill-rule:nonzero;"/>
    <path id="text07" d="M3886.89,2026.95C3888.03,2026.95 3889.02,2027.38 3889.87,2028.22C3890.71,2029.06 3891.13,2030.06 3891.13,2031.2L3891.13,2038.34C3891.13,2039.48 3890.71,2040.48 3889.87,2041.32C3889.02,2042.16 3888.03,2042.59 3886.89,2042.59L3879,2042.59C3877.86,2042.59 3876.87,2042.16 3876.02,2041.32C3875.18,2040.48 3874.76,2039.48 3874.76,2038.34L3874.76,2031.2C3874.76,2030.06 3875.18,2029.06 3876.02,2028.22C3876.87,2027.38 3877.86,2026.95 3879,2026.95L3886.89,2026.95Z" style="fill:{{color3}}; fill-rule:nonzero;"/>
    <path id="text08" d="M3927.98,2032.39C3929.07,2032.19 3930.04,2032.41 3930.88,2033.06C3931.72,2033.7 3932.15,2034.57 3932.15,2035.66L3932.15,2037.6C3932.15,2038.84 3931.76,2039.93 3930.99,2040.87C3930.22,2041.82 3929.22,2042.39 3927.98,2042.59C3924.51,2043.08 3921.55,2043.33 3919.12,2043.33C3912.52,2043.33 3907.46,2041.64 3903.94,2038.27C3900.41,2034.89 3898.65,2029.88 3898.65,2023.23C3898.65,2016.73 3900.35,2011.76 3903.75,2008.31C3907.15,2004.86 3912.02,2003.13 3918.38,2003.13C3920.81,2003.13 3923.76,2003.38 3927.23,2003.88C3928.47,2004.08 3929.48,2004.65 3930.25,2005.59C3931.02,2006.53 3931.4,2007.62 3931.4,2008.87L3931.4,2010.8C3931.4,2011.89 3930.98,2012.76 3930.14,2013.41C3929.29,2014.05 3928.33,2014.28 3927.23,2014.08C3925.2,2013.73 3923.12,2013.56 3920.98,2013.56C3918.45,2013.56 3916.58,2014.32 3915.36,2015.86C3914.15,2017.4 3913.54,2019.86 3913.54,2023.23C3913.54,2026.66 3914.2,2029.12 3915.51,2030.64C3916.83,2032.15 3918.9,2032.91 3921.73,2032.91C3923.86,2032.91 3925.94,2032.73 3927.98,2032.39Z" style="fill:{{color3}}; fill-rule:nonzero;"/>
    <path id="text09" d="M3953.29,1986.76C3954.43,1986.76 3955.42,1987.18 3956.26,1988.02C3957.11,1988.87 3957.53,1989.86 3957.53,1991L3957.53,2038.34C3957.53,2039.48 3957.11,2040.48 3956.26,2041.32C3955.42,2042.16 3954.43,2042.59 3953.29,2042.59L3946.89,2042.59C3945.74,2042.59 3944.75,2042.16 3943.91,2041.32C3943.06,2040.48 3942.64,2039.48 3942.64,2038.34L3942.64,1991C3942.64,1989.86 3943.06,1988.87 3943.91,1988.02C3944.75,1987.18 3945.74,1986.76 3946.89,1986.76L3953.29,1986.76Z" style="fill:{{color3}}; fill-rule:nonzero;"/>
    <path id="text10" d="M4001.37,2003.88C4002.51,2003.88 4003.51,2004.3 4004.35,2005.14C4005.19,2005.99 4005.61,2006.98 4005.61,2008.12L4005.61,2038.34C4005.61,2039.48 4005.19,2040.48 4004.35,2041.32C4003.51,2042.16 4002.51,2042.59 4001.37,2042.59L3996.31,2042.59C3995.12,2042.59 3994.1,2042.17 3993.26,2041.36C3992.41,2040.54 3991.97,2039.53 3991.92,2038.34L3991.92,2037.75C3991.92,2037.7 3991.89,2037.67 3991.84,2037.67C3991.74,2037.67 3991.7,2037.7 3991.7,2037.75C3988.62,2041.47 3984.82,2043.33 3980.31,2043.33C3975.94,2043.33 3972.8,2042.11 3970.89,2039.68C3968.98,2037.25 3968.02,2033.01 3968.02,2026.95L3968.02,2008.12C3968.02,2006.98 3968.45,2005.99 3969.29,2005.14C3970.13,2004.3 3971.13,2003.88 3972.27,2003.88L3977.55,2003.88C3978.69,2003.88 3979.69,2004.3 3980.53,2005.14C3981.37,2005.99 3981.8,2006.98 3981.8,2008.12L3981.8,2026.21C3981.8,2028.49 3982.11,2030.06 3982.72,2030.9C3983.35,2031.74 3984.4,2032.16 3985.89,2032.16C3987.28,2032.16 3988.56,2031.62 3989.72,2030.53C3990.89,2029.43 3991.47,2028.24 3991.47,2026.95L3991.47,2008.12C3991.47,2006.98 3991.89,2005.99 3992.74,2005.14C3993.58,2004.3 3994.57,2003.88 3995.71,2003.88L4001.37,2003.88Z" style="fill:{{color3}}; fill-rule:nonzero;"/>
    <path id="text11" d="M4035.46,2032.91C4037.4,2032.91 4038.94,2032.1 4040.08,2030.49C4041.22,2028.88 4041.79,2026.46 4041.79,2023.23C4041.79,2016.78 4039.68,2013.56 4035.46,2013.56C4033.78,2013.56 4032.3,2014.13 4031.03,2015.27C4029.77,2016.41 4029.14,2017.7 4029.14,2019.14L4029.14,2027.33C4029.14,2028.77 4029.77,2030.06 4031.03,2031.2C4032.3,2032.34 4033.78,2032.91 4035.46,2032.91ZM4040.67,2003.13C4045.24,2003.13 4048.86,2004.86 4051.54,2008.31C4054.22,2011.76 4055.56,2016.73 4055.56,2023.23C4055.56,2029.58 4054.16,2034.52 4051.35,2038.04C4048.55,2041.57 4044.99,2043.33 4040.67,2043.33C4035.91,2043.33 4031.99,2041.47 4028.91,2037.75C4028.86,2037.7 4028.81,2037.67 4028.76,2037.67C4028.71,2037.67 4028.69,2037.7 4028.69,2037.75L4028.69,2038.34C4028.64,2039.53 4028.19,2040.54 4027.35,2041.36C4026.51,2042.17 4025.49,2042.59 4024.3,2042.59L4019.61,2042.59C4018.47,2042.59 4017.47,2042.16 4016.63,2041.32C4015.79,2040.48 4015.37,2039.48 4015.37,2038.34L4015.37,1991C4015.37,1989.86 4015.79,1988.87 4016.63,1988.02C4017.47,1987.18 4018.47,1986.76 4019.61,1986.76L4025.26,1986.76C4026.41,1986.76 4027.4,1987.18 4028.24,1988.02C4029.09,1988.87 4029.51,1989.86 4029.51,1991L4029.51,2007.53C4029.51,2007.58 4029.53,2007.6 4029.58,2007.6C4029.63,2007.6 4029.68,2007.58 4029.73,2007.53C4033.06,2004.6 4036.7,2003.13 4040.67,2003.13Z" style="fill:{{color3}}; fill-rule:nonzero;"/>
</svg>
